<svg width="136" height="86" viewBox="0 0 136 86" fill="none" xmlns="http://www.w3.org/2000/svg">
<path d="M1.4502 0.183594H27.5098V5.63281H17.7539V32H11.2061V5.63281H1.4502V0.183594ZM31.5967 0.183594H44.0771C46.4648 0.183594 48.5083 0.608398 50.2075 1.45801C51.9214 2.30762 53.2251 3.51611 54.1187 5.0835C55.0122 6.63623 55.459 8.45996 55.459 10.5547C55.459 12.7227 54.9756 14.583 54.0088 16.1357C53.042 17.6885 51.6504 18.853 49.834 19.6294L56.6016 32H49.3066L43.2202 20.7061H38.1885V32H31.5967V0.183594ZM42.8467 15.3447C46.7139 15.3447 48.6475 13.748 48.6475 10.5547C48.6475 8.92871 48.1641 7.69824 47.1973 6.86328C46.2305 6.01367 44.7803 5.58887 42.8467 5.58887H38.1885V15.3447H42.8467ZM60.0293 0.183594H81.3867V5.63281H66.6211V13.3672H80.2881V18.8164H66.6211V26.5508H81.4307V32H60.0293V0.183594ZM114.917 36.9658H94.043V32H114.917V36.9658ZM135.439 36.9658H114.565V32H135.439V36.9658ZM15.9961 78.4414H16.3037L24.082 54.1836H31.377L20.3906 86H11.9092L0.878906 54.1836H8.26172L15.9961 78.4414ZM41.5723 86H34.9805V54.1836H41.5723V86ZM46.9336 54.1836H68.291V59.6328H53.5254V67.3672H67.1924V72.8164H53.5254V80.5508H68.335V86H46.9336V54.1836ZM71.4551 54.1836H78.6621L84.0234 76.4199H84.2871L90.1318 54.1836H96.3281L102.173 76.4639H102.437L107.798 54.1836H115.005L105.908 86H99.4482L93.3838 64.9941H93.1201L87.0117 86H80.5518L71.4551 54.1836Z" fill="#FA7800"/>
</svg>
